<?xml version="1.0" encoding="utf-8"?>
<!-- Generator: Adobe Illustrator 24.1.2, SVG Export Plug-In . SVG Version: 6.00 Build 0)  -->
<svg version="1.1" id="Layer_1" xmlns="http://www.w3.org/2000/svg" xmlns:xlink="http://www.w3.org/1999/xlink" x="0px" y="0px"
	 viewBox="0 0 90 90" style="enable-background:new 0 0 90 90;" xml:space="preserve">
<style type="text/css">
	.st0{fill:#333333;}
</style>
<g>
	<path class="st0" d="M46.8,34.7c-0.2-0.1-0.5-0.2-0.8,0c-0.3,0.3-0.6,0.6-0.9,0.9c0.1-0.5,0.3-1,0.4-1.4c0.1-0.3-0.2-0.5-0.4-0.6
		c-0.2-0.1-0.6-0.1-0.7,0.2c-0.3,0.9-0.6,1.8-0.9,2.8c-0.3,0.9-0.6,1.8-1.1,2.6c-0.1,0.1,0,0.3,0.1,0.3c0.1,0.1,0.2,0.2,0.3,0.3
		c0.3,0.1,0.5,0.1,0.7-0.2c0.9-1.5,2-3,3.4-4.2C47.2,35.1,47,34.8,46.8,34.7z"/>
	<path class="st0" d="M76.5,29C76.5,29,76.5,29,76.5,29C76.5,29,76.5,29,76.5,29C76.5,29,76.5,29,76.5,29C76.6,29,76.5,29,76.5,29z"
		/>
	<path class="st0" d="M40.6,5.4C40.6,5.4,40.6,5.4,40.6,5.4C40.6,5.4,40.6,5.4,40.6,5.4C40.6,5.4,40.6,5.4,40.6,5.4z"/>
	<path class="st0" d="M84.3,39.6c-0.6-0.9-1.4-1.5-2.3-2.1c-1-0.6-2-1-3.2-1.1c0,0-0.1,0-0.1,0c0.1-0.5,0.3-1,0.4-1.5
		c0.1-0.6,0.1-1.2,0-1.9c-0.2-0.9-0.4-1.9-0.7-2.8c-0.1-0.3-0.2-0.6-0.2-0.9c0,0,0,0,0-0.1c0,0,0,0,0,0c0.4-0.2,0.7-0.6,0.8-1
		c0.1-0.6,0-1.2-0.2-1.7c-0.2-0.6-0.6-1.1-1-1.5c-0.5-0.5-1-0.8-1.7-1c-0.7-0.2-1.6-0.1-2.2,0.4c-0.1,0.1-0.3,0.3-0.4,0.4
		c0,0,0,0,0,0c-0.2,0.3-0.5,0.3-0.6,0.3l0,0c-2.7,0.1-5.2,1.1-7.7,1.9c-1.4,0.5-2.8,0.9-4.2,1c-1.6,0.2-3.2,0-4.8-0.4
		c-3.2-0.8-6.1-2.4-9.1-3.6c-1.5-0.6-3.1-1.1-4.7-1.3c-0.6-0.1-1.2-0.1-1.7-0.2c0.2-0.3,0.4-0.7,0.6-1c0.3-0.7,0.5-1.4,0.6-2.2
		C42,19,42,18.7,42,18.3c0-0.5,0.1-1,0.1-1.5c0.1-1,0.2-1.9,0.3-2.9c0.1-1.1,0.3-2.2,0.5-3.3c0.5-0.1,1-0.2,1.6-0.2
		c0.5-0.1,0.9-0.1,1.4-0.1c0.2,0,0.5,0,0.7,0c0.2,0,0.5,0,0.7,0c1.1,0,2.2,0.2,3.3,0.3c0.1,0,0.1,0,0.2,0c0,0,0,0,0,0c0,0,0,0,0,0
		c0,0,0,0,0.1,0c0,0,0,0,0,0c0,0,0,0,0,0c0-0.1,0-0.2,0-0.3c-0.1-0.1-0.2-0.2-0.3-0.2c-1-0.3-1.9-0.8-2.8-1.5
		C47,7.8,46.1,7,45.2,6.4c-0.9-0.7-2-1.2-3.1-1.5c-1.2-0.2-2.4-0.1-3.4,0.5c-1,0.5-1.8,1.2-2.4,2.1c-0.7,1-1.2,2.1-1.7,3.2
		c-0.4,1-0.9,2-1.4,2.9c-0.5,0.9-1.1,1.9-1.6,2.8c-1.1,1.7-2.2,3.3-3.4,4.9c-0.2-0.8-0.3-1.6-0.4-2.4c-0.1-1.1-0.2-2.2-0.2-3.2
		c0-2.1,0.4-4.3,1-6.3C29.2,7.2,30,5.1,30.4,3c0-0.3,0.1-0.5,0.1-0.8c0,0,0,0,0,0c0,0,0,0,0,0c0,0,0,0,0,0c0,0,0,0,0,0
		c0.1-0.5-0.3-0.6-0.6-0.6c0,0,0,0,0,0c0,0,0,0,0,0c-0.1,0-0.1,0-0.2,0l0,0c-3.1,0.3-5.6,2.5-7.4,5c-1.1,1.4-2,2.9-2.8,4.4
		c-0.9,1.6-1.8,3.2-2.6,4.9c-3.3,6.7-5.6,13.8-6.8,21.1c-0.6,3.8-1.1,7.8-3.5,10.9C6,48.3,6.7,49,7.2,48.7c0.6-0.3,1.3-0.5,1.9-0.6
		c-1.2,5.2-2.3,10.4-3.2,15.6c-0.3,1.6-0.5,3.1-0.8,4.7c-0.1,0.4,0.6,1,0.9,0.5c0.7-1.1,1.7-2.1,2.8-2.9c-0.2,3.6-0.1,7.3,0.4,10.9
		c0.1,0.7,1.1,0.7,1,0C9.6,73,9.5,69.1,9.9,65.1c0-0.4-0.4-0.8-0.8-0.6c-1,0.5-1.8,1.2-2.6,2c0.8-4.8,1.7-9.5,2.7-14.2
		c0.3-1.5,0.7-3.1,1.1-4.6c0.1-0.4-0.1-0.8-0.6-0.8c-0.5,0-1,0.1-1.5,0.2c1.4-2.4,2-5.2,2.5-8c0.6-3.6,1.3-7.1,2.3-10.6
		c2-7,5.1-13.8,9.1-19.9c1.7-2.5,3.9-5.2,7-5.9c0.2,0,0.2,0.2,0.1,0.3c0,0,0,0,0,0c-1,2-2,4-3,6c-1.1,2.3-2.1,4.7-3,7.1
		c-0.9,2.4-1.6,4.9-2.1,7.4c-0.5,2.6-0.7,5.3-0.4,8c0.1,1.3,0.4,2.6,0.9,3.8c0.5,1.1,1.3,1.9,2,2.9c0.2,0.2,0.3,0.5,0.4,0.7
		c0.2,0.3,0.9-0.1,0.7-0.4c-0.5-1-1.4-1.8-2-2.8c-0.7-1.1-0.9-2.3-1.1-3.5c-0.4-2.6-0.3-5.3,0.2-7.9c0.4-2.5,1.1-5,1.9-7.4
		c0.8-2.4,1.8-4.7,2.9-7c0.6-1.3,1.2-2.5,1.8-3.8c0.1-0.1,0.1-0.2,0.1,0C28.2,7,28,7.6,27.8,8.3c-0.6,2.1-1,4.2-1.2,6.3
		c-0.1,1.1-0.1,2.2,0,3.3c0.1,1.1,0.3,2.2,0.5,3.2c0.2,1.1,0.4,2.1,0.5,3.2c0.1,1.1,0,2.1-0.1,3.2c-0.2,1.1-0.4,2.1-0.6,3.2
		c-0.2,1-0.4,2.1-0.8,3.1c-0.1,0.2-0.2,0.4-0.3,0.7c-0.1,0.2,0,0.5,0.3,0.6c0.2,0.1,0.6,0,0.8-0.3c0.9-2,1.2-4.1,1.6-6.2
		c0.1-0.7,0.2-1.4,0.3-2.1c2.7-1.3,5.5-2.2,8.5-2.7c1.5-0.2,3-0.3,4.5-0.2c1.5,0.1,3.1,0.5,4.5,1.1c3.1,1.1,5.9,2.7,9,3.6
		c1.6,0.5,3.2,0.8,4.9,0.8c1.5,0,3-0.3,4.5-0.8c2.8-0.8,5.4-2.1,8.4-2.3c0.1,0,0.3,0,0.4,0c0,0.2,0.1,0.5,0.2,0.7
		c0.2,0.5,0.6,1.1,1,1.5c0.4,0.4,0.9,0.8,1.5,1c0.3,0.1,0.7,0.1,1.1,0.1c-0.7,2-1.5,3.9-2.3,5.9c-0.4,1-0.8,1.8-1.5,2.7
		c-0.3,0.4-0.6,0.8-0.9,1.2c-0.2,0.2-0.3,0.4-0.5,0.6c-0.1,0.1-0.2,0.2-0.2,0.3c0,0-0.1,0.1-0.1,0.1c0,0,0,0-0.1,0.1c0,0,0,0,0,0
		c0,0,0,0,0,0c-0.7,0.7-1.5,1.4-2.3,2.1c-0.4,0.3-0.8,0.6-1.2,0.9c0,0,0,0,0,0c0,0,0,0,0,0c0,0,0,0-0.1,0c-0.1,0-0.1,0.1-0.2,0.1
		c-0.1,0.1-0.2,0.1-0.4,0.2c-0.2,0.1-0.5,0.2-0.7,0.3c-0.5,0.2-1,0.3-1.6,0.4c-0.1,0-0.3,0.1-0.4,0.1c0,0-0.1,0-0.1,0c0,0,0,0,0,0
		c0,0,0,0,0,0c-0.1,0-0.2,0-0.2,0.1c-0.3,0.1-0.5,0.1-0.8,0.2c-1.1,0.3-2.1,0.5-3.2,0.7c-0.5,0.1-1,0.2-1.5,0.2
		c-0.2,0-0.5,0.1-0.7,0.1c-0.1,0-0.2,0-0.4,0c-0.1,0-0.1,0-0.2,0c0,0,0,0,0,0c0,0-0.1,0-0.1,0c-0.5,0-1,0-1.4-0.1
		c-0.1,0-0.1,0-0.2,0c0,0,0,0-0.1,0c0,0,0,0,0,0c-0.1,0-0.2-0.1-0.3-0.1c-0.2-0.1-0.5-0.1-0.7-0.2c0,0-0.1,0-0.1,0c0,0,0,0,0,0
		c0,0-0.1,0-0.1,0c-0.1-0.1-0.2-0.1-0.3-0.2c-0.2-0.1-0.6-0.1-0.8,0.1c-0.2,0.2,0,0.5,0.2,0.7c1.9,1,4,1,6.1,0.7
		c0.7-0.1,1.3-0.2,2-0.4c-1,2.2-1.8,4.5-2.1,6.9c-0.2,1.2-0.3,2.5-0.3,3.7c-0.1,0-0.2,0.1-0.2,0.1c-0.9,0.6-1.6,1.4-2,2.3
		c-0.5,0.9-0.7,2-0.6,3c0.1,1.2,0.4,2.3,1,3.4c0.5,1.1,1.3,2.1,2,3.1c0.8,1.1,1.7,2.2,2.5,3.3c0,0,0.2,0.2,0.3,0.3
		c0.2,1.9,0.1,3.9,0,5.9c-0.1,1.5-0.1,2.9-0.5,4.4c-0.3,1.4-0.9,2.7-1.5,3.9c-0.2,0.3-0.3,0.6-0.5,0.9c-0.1,0.2,0,0.4,0.1,0.5
		c0.1,0.1,0.4,0.1,0.5-0.1c0.6-1.3,1.3-2.6,1.7-3.9c0.5-1.4,0.7-2.8,0.8-4.3c0.1-1.5,0.1-3,0.1-4.5c0-1.5-0.1-3-0.3-4.5
		c-0.5-2.9-1.6-5.5-2.2-8.4c-0.5-2.6-0.6-5.3-0.3-8c0.3-2.6,1-5.3,2.1-7.7c0.1-0.3,0.3-0.6,0.4-0.8c0.1,0,0.2,0,0.2-0.1
		c0.8-0.2,1.5-0.4,2.3-0.6c-0.4,0.6-0.7,1.3-1,2c-0.5,1.4-1,2.8-1.4,4.2c-0.4,1.5-0.7,3-0.7,4.5c0,1.6,0.2,3.2,0.5,4.7
		c0.5,3.1,1.1,6.3,1.4,9.4c0.3,3.1,0.4,6.3,0,9.5c-0.4,3.1-1,4.4-1.9,7.4c-0.1,0.4-0.3,0.9-0.3,1c0,0.1,0.1,0.3,0.3,0.4
		c0.2,0,0.4-0.1,0.5-0.3c0.1-0.2,1.5-4.3,2-7.3c0.5-3.1,0.6-6.2,0.3-9.4c-0.3-3.2-0.8-6.3-1.3-9.4c-0.3-1.6-0.6-3.1-0.7-4.7
		c0-0.6,0-1.2,0-1.8c0,0,0.1,0,0.1-0.1c0.2-0.2,0.3-0.5,0.5-0.7c0,0,0.1-0.1,0.1-0.1c0,0,0,0,0,0c0,0,0.1-0.1,0.1-0.1
		c0.1-0.1,0.2-0.2,0.4-0.3c0.5-0.4,1-0.8,1.5-1.1c0.1-0.1,0.2-0.2,0.4-0.2c0.1,0,0.1-0.1,0.2-0.1c0,0,0,0,0,0c0,0,0,0,0,0
		c0,0,0.1,0,0.1-0.1c0.3-0.2,0.6-0.3,0.8-0.4c0.5-0.3,1.1-0.5,1.7-0.8c0.8-0.3,1.6-0.7,2.5-1c-0.2,0.8-0.3,1.6-0.3,2.4
		c-0.1,1.1-0.2,2.3-0.2,3.4c0,2.8,0.2,5.7,0.5,8.5c0.4,2.9,1,5.7,1.9,8.4c0.4,1.3,0.9,2.7,1.3,4c0.4,1.2,1,2.4,1.8,3.4
		c0.7,0.9,1.7,1.6,2.7,2.2c0.5,0.3,1.1,0.5,1.6,0.7c0.6,0.2,1.1,0.3,1.7,0.2c0.6,0,1.1-0.2,1.5-0.6c0.4-0.4,0.6-1,0.7-1.6
		c0.2-1.2,0.1-2.5,0-3.7c-0.4-2.5-1.5-4.9-3.2-6.8c-1.6-1.9-3.7-3.4-5.5-5.1c-0.5-0.4-1-0.8-1.3-1.3c-0.4-0.5-0.5-1.1-0.6-1.7
		c-0.2-1.3-0.3-2.6-0.4-3.9c-0.1-2.7-0.1-5.4,0.1-8.1c0.1-0.6,0.1-1.2,0.2-1.7c0.8-0.5,1.6-1.1,2.2-1.9c1-1.1,1.7-2.5,2.1-4
		c0,0,0,0,0,0c0.1,0,0.2,0,0.3-0.1c1.2-0.2,2.5-0.2,3.7-0.2c0.6,0,1.1,0,1.7-0.1c0.5-0.1,0.8-0.3,1-0.8
		C85.2,41.2,84.7,40.2,84.3,39.6z M28.9,25.2c0,0-0.1,0-0.1,0.1c0,0,0,0,0,0c0-1-0.1-1.9-0.3-2.8c0,0,0,0,0,0
		c1.2-1.7,2.5-3.4,3.6-5.2c1.2-1.8,2.3-3.6,3.1-5.5c0.5-1.1,0.9-2.2,1.4-3.2c0.5-0.9,1.1-1.8,1.9-2.4C38.7,6.1,38.8,6,38.9,6
		c0,0,0.1-0.1,0.1-0.1c0,0,0,0,0.1,0c0,0,0,0,0.1,0c0,0,0.1,0,0.1,0c0,0,0.1,0,0.1,0c0.1,0,0.1-0.1,0.2-0.1c0.1,0,0.1,0,0.2-0.1
		c0,0,0.1,0,0.1,0c0,0,0.1,0,0.1,0c0.1,0,0.2-0.1,0.3-0.1c0,0,0.1,0,0.1,0c0.1,0,0,0,0,0c0,0,0.2,0,0.2,0c0.1,0,0.1,0,0.2,0
		c0,0,0,0,0,0c0,0,0,0,0,0c0,0,0,0,0,0c0,0,0,0,0,0c0,0,0,0,0,0c0.1,0,0.3,0,0.4,0c0,0,0.1,0,0.1,0c0.1,0,0.1,0,0.2,0
		c0.1,0,0.1,0,0.2,0c0,0,0.1,0,0.1,0c0,0,0,0,0,0c0,0,0,0,0,0c0.3,0.1,0.5,0.1,0.8,0.2c0.5,0.2,1,0.5,1.4,0.7c1.5,1,2.7,2.3,4.3,3.2
		c-1.2-0.1-2.4-0.1-3.6,0C43.7,9.7,43,9.8,42.2,10c-0.1,0-0.1,0-0.2,0c-0.9,0.1-1.7,0.3-2.6,0.3c-0.1,0-0.2,0-0.3,0
		c-0.1,0-0.1,0-0.2,0c0,0-0.1,0-0.1,0c-0.2,0-0.5,0-0.7,0c-0.2,0-0.5-0.1-0.7-0.1c0,0-0.1,0-0.1,0c-0.1,0-0.1,0-0.2,0
		C37,10,36.9,10,36.8,10c-0.2,0-0.5-0.1-0.5,0.2c0,0.2,0.4,0.4,0.6,0.5c0.9,0.3,1.8,0.4,2.7,0.4c0.8,0,1.5-0.1,2.3-0.2
		c-0.3,1.7-0.5,3.3-0.7,5c-0.2,1.6-0.1,3.3-0.7,4.8c-0.1,0.4-0.3,0.7-0.5,1.1c-0.1,0.2-0.2,0.3-0.3,0.5c-0.1,0.1-0.2,0.3-0.4,0.4
		c0,0,0,0,0,0c-0.4,0-0.9,0-1.3,0.1C34.8,23,31.8,23.9,28.9,25.2z M37.5,10.1C37.5,10.1,37.5,10.1,37.5,10.1
		C37.5,10.1,37.5,10.2,37.5,10.1z M60.3,65.1c0.4,1.4,0.9,2.8,1.2,4.2c0.1,0.4,0.2,0.8,0.2,1.2c-0.4-0.5-0.8-1-1.2-1.5
		c-0.7-1-1.4-1.9-2-3c-1-1.9-1.7-4.2-0.8-6.3c0.3-0.7,0.8-1.4,1.3-1.9c0,1.1,0.1,2.2,0.3,3.3C59.6,62.5,59.9,63.8,60.3,65.1z
		 M81.8,37.6C81.8,37.6,81.8,37.6,81.8,37.6C81.8,37.6,81.8,37.5,81.8,37.6C81.8,37.5,81.8,37.5,81.8,37.6
		C81.8,37.6,81.8,37.6,81.8,37.6z M76.9,29C76.9,29,76.9,29,76.9,29c0,0-0.1,0-0.1,0C76.8,29,76.8,29,76.9,29c-0.1,0-0.1,0-0.1,0
		c0,0-0.1,0-0.1,0c0,0,0,0,0,0c0,0,0,0-0.1,0c0,0,0,0,0,0c0,0,0,0,0,0c0,0,0,0,0,0c0,0,0,0,0,0c-0.1,0-0.1,0-0.1-0.1
		c0,0-0.1,0-0.1,0c-0.1,0-0.1-0.1-0.2-0.1c-0.1,0-0.2-0.1-0.3-0.2c-0.1-0.1-0.2-0.2-0.3-0.3c-0.4-0.4-0.7-0.9-1-1.4
		c-0.2-0.3-0.3-0.7-0.3-1c0-0.4,0.1-0.8,0.4-1.1c0.1-0.1,0.1-0.1,0.2-0.2c0.1-0.1,0.2-0.1,0.3-0.1c0,0,0.1,0,0.1,0c0,0,0,0,0,0
		c0,0,0.1,0,0.1,0c0,0,0,0,0,0c0,0,0,0,0,0c0,0,0.1,0,0.1,0c0,0,0,0,0,0c0,0,0.1,0,0.1,0c0,0,0,0,0,0c0,0,0.1,0,0.1,0
		c0,0,0.1,0,0.1,0c0,0,0,0,0,0c0.1,0,0.1,0,0.2,0.1c0,0,0,0,0,0c0,0,0,0,0,0c0,0,0.1,0,0.1,0c0.2,0.1,0.4,0.2,0.6,0.4
		c0.4,0.4,0.7,0.8,0.9,1.3c0.4,0.8,0.7,2-0.1,2.6c-0.1,0.1-0.2,0.1-0.2,0.1c0,0-0.1,0-0.1,0c0,0,0,0,0,0c0,0,0,0,0,0
		C77,29,77,29,76.9,29C76.9,29,76.9,29,76.9,29z M77.8,30.9L77.8,30.9c0.1-0.2,0.1-0.4,0.2-0.1c0,0.1,0.1,0.2,0.1,0.3
		c0.1,0.4,0.4,1.7,0.4,1.7c0,0,0,0,0,0.1c0,0.3,0,0.6,0,0.9c-0.1,0.8-0.3,1.5-0.6,2.2c0,0,0,0.1,0,0.2c-0.7,0-1.5,0-2.2,0.1
		c0.4-0.9,0.8-1.9,1.2-2.9C77.1,32.6,77.4,31.7,77.8,30.9z M72.8,60.5c0.1,0.6,0.1,1.3,0.2,1.9c0.1,0.6,0.2,1.3,0.5,1.9
		c0.3,0.6,0.8,1.1,1.2,1.5c0.4,0.4,0.9,0.8,1.4,1.2c0.9,0.8,1.9,1.6,2.8,2.4c0.9,0.8,1.7,1.7,2.5,2.6c0.7,1,1.3,2,1.7,3.1
		c0.4,1.2,0.7,2.4,0.8,3.6c0,0.6,0,1.2,0,1.8c0,0.5-0.1,1.1-0.4,1.6c-0.6,1-1.9,0.8-2.9,0.6c-1-0.3-2-0.8-2.9-1.5
		c-0.9-0.7-1.6-1.6-2.1-2.6c-0.6-1.2-1-2.5-1.4-3.8c-0.9-2.7-1.7-5.4-2.1-8.1c-0.5-2.8-0.7-5.6-0.8-8.4c-0.1-2.3-0.1-4.7,0.3-7
		c0.1-0.4,0.2-0.9,0.3-1.3c0.2-0.1,0.4-0.2,0.6-0.3c0.1-0.1,0.3-0.2,0.4-0.2c-0.2,2.3-0.4,4.7-0.3,7C72.7,57.8,72.7,59.1,72.8,60.5z
		 M76.7,43.8c-0.1,0.1-0.1,0.3-0.2,0.4c0,0,0,0.1,0,0.1c0,0,0,0.1,0,0.1c0,0.1-0.1,0.2-0.1,0.3c-0.3,0.6-0.7,1.1-1.1,1.6
		c-0.1,0.1-0.2,0.2-0.3,0.4c0,0,0,0,0,0c0,0,0,0,0,0c0,0-0.1,0.1-0.1,0.1c-0.1,0.1-0.1,0.1-0.2,0.2c-0.2,0.2-0.5,0.5-0.8,0.7
		c-0.3,0.2-0.5,0.4-0.8,0.6c-0.1,0.1-0.3,0.2-0.4,0.3c0,0-0.1,0-0.1,0.1c0,0,0,0,0,0c0,0,0,0,0,0c-0.1,0-0.2,0.1-0.3,0.1
		c-1.2,0.7-2.5,1.2-3.8,1.7c-1.2,0.5-2.3,1-3.4,1.7c-0.7,0.4-1.4,0.9-2,1.5c0-0.3,0.1-0.5,0.1-0.8c0.3-1.5,0.8-3,1.3-4.4
		c0.1-0.4,0.3-0.8,0.4-1.2c2.1-0.7,4.6-1.5,6.6-2.1c1.7-0.5,3.5-1.1,5.3-1.6C76.8,43.6,76.8,43.7,76.7,43.8z M83.9,41.4
		c-0.1,0.4-0.5,0.7-0.9,0.8c-0.2,0.1-0.5,0.1-0.7,0.1c-0.3,0-0.6,0-0.9,0c-1.2,0-2.4,0.1-3.6,0.2c-0.1,0-0.2,0-0.3,0
		c-0.1,0-0.2,0-0.3,0c-2.1,0.3-4.1,1-6.1,1.7c-1.9,0.6-3.8,1.2-5.8,1.8c0.2-0.3,0.4-0.7,0.6-1c0,0,0,0,0,0c0.1,0,0.1,0,0.2,0
		c1.1-0.3,2.1-0.6,3-1.3c0.9-0.6,1.6-1.3,2.4-2.1c0.2-0.2,0.4-0.4,0.6-0.5c2-0.3,3.9-1.2,5.9-1.3c0.2,0,0.4-0.1,0.4-0.3
		c0-0.2-0.2-0.3-0.4-0.3c-1.7,0.1-3.4,0.7-5.1,1.1c0,0-0.1,0-0.1,0c0.3-0.3,0.6-0.7,0.9-1c0.6-0.7,1-1.5,1.5-2.3
		c1.2-0.2,2.4-0.3,3.5-0.3c0.6,0,1.2,0.1,1.7,0.2c0.2,0.1,0.4,0.1,0.7,0.2c0.1,0,0.2,0.1,0.3,0.1c0.1,0,0.1,0,0.2,0.1c0,0,0,0,0,0
		c0,0,0,0,0.1,0c0,0,0.2,0.1,0.1,0c0,0,0,0,0.1,0c0,0,0.1,0,0.1,0c0,0,0,0,0,0c0,0,0,0,0,0c0,0,0,0,0,0c0,0,0,0,0.1,0c0,0,0,0,0,0
		c0,0,0,0,0,0c0,0,0,0,0.1,0c0.1,0.1,0.2,0.1,0.2,0.2c0.3,0.3,0.6,0.6,0.9,1C83.7,39.6,84.1,40.5,83.9,41.4z"/>
	<path class="st0" d="M78.9,80.3c0.3,0.3,0.6,0.6,1,0.9c0.4,0.3,0.9,0.5,1.4,0.5c0.9,0,1.6-0.8,1.7-1.7c0.1-0.5,0-1-0.1-1.5
		c-0.1-0.5-0.2-0.9-0.4-1.3c-0.4-0.9-0.9-1.7-1.4-2.5c-0.6-0.8-1.3-1.5-2.1-2.3c-0.4-0.4-0.7-0.7-1.1-1.1c-0.4-0.3-0.7-0.6-1.2-0.8
		c-0.2-0.1-0.4-0.1-0.6-0.2l0,0c-0.1,0-0.6-0.1-0.6,0.3c-0.2,1.7,0.1,3.5,0.7,5.1C76.7,77.6,77.7,79.1,78.9,80.3z M76.1,71
		c0.3,0.1,0.6,0.3,0.8,0.5c0.3,0.3,0.7,0.6,1,0.9c0.7,0.7,1.4,1.3,2,2c1.1,1.3,2.1,2.9,2.3,4.7c0.1,0.8-0.1,1.7-0.9,2.1
		c-0.3,0.1-0.7,0-1-0.1c-0.3-0.2-0.6-0.5-0.9-0.8c-1.1-1.1-2-2.5-2.6-4c-0.6-1.5-0.9-3.1-0.8-4.8C76.1,71.3,76.1,71.2,76.1,71z"/>
</g>
</svg>
