<?xml version="1.0" encoding="utf-8"?>
<!-- Generator: Adobe Illustrator 24.1.2, SVG Export Plug-In . SVG Version: 6.00 Build 0)  -->
<svg version="1.1" id="Layer_1" xmlns="http://www.w3.org/2000/svg" xmlns:xlink="http://www.w3.org/1999/xlink" x="0px" y="0px"
	 viewBox="0 0 702.5 145.1" style="enable-background:new 0 0 702.5 145.1;" xml:space="preserve">
<style type="text/css">
	.st0{fill:#333333;}
</style>
<g id="Layer_2_1_">
	<g>
		<g>
			<path class="st0" d="M54.7,61c-0.1-1.4-0.2-2.6-0.4-3.6c-0.1-1-0.6-2.4-1.3-4c-0.7-1.7-1.6-3-2.6-4.2c-1.1-1.1-2.6-2-4.8-2.9
				c-2.2-0.8-4.7-1.2-7.6-1.2c-11.2,0-16.9,6.1-16.9,18.4v44.8c0,12.3,5.7,18.4,17.2,18.4c3.4,0,6.3-0.5,8.5-1.6
				c2.3-1.1,4-2.5,4.9-4.6c1-1.9,1.7-3.7,2-5.3c0.4-1.6,0.6-3.5,0.7-5.7c0.4-4.3,3.7-6.6,10.2-6.6c3.7,0,6.4,0.7,8.1,2.2
				c1.7,1.4,2.5,4.1,2.5,8.1c0,9.6-3.6,17.3-10.7,23.1S48.1,145,36.8,145c-11.1,0-19.9-3-26.7-8.9C3.5,130.3,0,121,0,108.3V63.6
				c0-12.7,3.4-21.9,10.2-27.8s15.8-9,26.8-9c11.2,0,20.3,2.8,27.4,8.3S75.1,48,75.1,57.3c0,4-0.8,6.6-2.4,8.1
				c-1.6,1.4-4.3,2.2-8.1,2.2C58.2,67.7,54.7,65.5,54.7,61"/>
		</g>
		<g>
			<path class="st0" d="M110.5,144.1c-3.1,0-6-0.8-8.9-2.5c-2.9-1.7-4.2-3.7-4.2-6.1c0-0.2,0.1-0.7,0.4-1.6L128.7,33
				c0.6-2.3,2.2-4,4.7-5.2c2.5-1.2,5.4-1.8,8.5-1.8s6.1,0.6,8.7,1.8c2.5,1.2,4.2,3,4.8,5.2l30.9,100.9c0.2,0.8,0.4,1.4,0.4,1.6
				c0,2.4-1.4,4.3-4.3,6.1c-2.9,1.7-5.8,2.5-8.8,2.5c-4,0-6.3-1.4-7.1-4.2l-6.1-21.3h-36.7l-6.1,21.3
				C116.9,142.8,114.5,144.1,110.5,144.1 M128.1,102.3H156l-14-49.2L128.1,102.3z"/>
		</g>
		<g>
			<path class="st0" d="M281.2,144.1c-5.7,0-9.6-2.2-12-6.6L234.8,73v64.5c0,2-1.1,3.6-3.1,4.8s-4.5,1.8-7.3,1.8
				c-2.9,0-5.3-0.6-7.3-1.8s-3-2.8-3-4.8v-104c0-2.2,1-3.7,3-4.9c2-1.1,4.5-1.7,7.3-1.7c3.9,0,6.7,0.7,8.8,2c2,1.3,4.3,4.3,6.7,9
				l30.9,59.8V33.3c0-2.2,1-3.7,3-4.8s4.5-1.6,7.3-1.6s5.3,0.5,7.3,1.6s3,2.6,3,4.8v104.3c0,2-1.1,3.6-3.1,4.8
				C286.4,143.5,284,144.1,281.2,144.1"/>
		</g>
		<g>
			<path class="st0" d="M372,61c-0.1-1.4-0.2-2.6-0.4-3.6c-0.1-1-0.6-2.4-1.3-4c-0.7-1.7-1.6-3-2.6-4.2c-1.1-1.1-2.6-2-4.8-2.9
				c-2.2-0.8-4.7-1.2-7.6-1.2c-11.2,0-16.9,6.1-16.9,18.4v44.8c0,12.3,5.7,18.4,17.2,18.4c3.4,0,6.3-0.5,8.5-1.6
				c2.3-1.1,4-2.5,4.9-4.6c1-1.9,1.7-3.7,2-5.3c0.4-1.6,0.6-3.5,0.7-5.7c0.4-4.3,3.7-6.6,10.2-6.6c3.7,0,6.4,0.7,8.1,2.2
				c1.7,1.4,2.5,4.1,2.5,8.1c0,9.6-3.6,17.3-10.7,23.1s-16.4,8.7-27.7,8.7c-11.1,0-19.9-3-26.7-8.9c-6.7-5.9-10.2-15.2-10.2-27.8
				V63.6c0-12.6,3.4-21.9,10.2-27.8s15.8-8.9,26.7-8.9c11.2,0,20.3,2.8,27.4,8.3s10.7,12.9,10.7,22.2c0,4-0.8,6.6-2.4,8.1
				c-1.6,1.4-4.3,2.2-8.1,2.2C375.6,67.7,372.1,65.5,372,61"/>
		</g>
		<g>
			<path class="st0" d="M483,144.1h-50.8c-2.4,0-4.6-0.6-6.4-1.8c-1.8-1.2-2.8-2.8-2.8-4.8V33.2c0-2.2,1-3.7,3-4.8s4.5-1.6,7.3-1.6
				c2.9,0,5.3,0.5,7.3,1.6s3,2.6,3,4.8v92.6h39.1c1.9,0,3.5,1,4.6,2.8c1.1,1.8,1.7,4,1.7,6.4s-0.6,4.6-1.7,6.4
				C486.4,143.3,484.8,144.1,483,144.1"/>
		</g>
		<g>
			<path class="st0" d="M521.7,144.2c-3.1,0-6-0.8-8.9-2.5c-2.9-1.7-4.2-3.7-4.2-6.1c0-0.2,0.1-0.7,0.4-1.6l30.8-100.9
				c0.6-2.3,2.2-4,4.7-5.2c2.5-1.2,5.4-1.8,8.5-1.8c3.3,0,6.1,0.6,8.7,1.8c2.6,1.2,4.2,3,4.8,5.2l31,100.9c0.2,0.8,0.4,1.3,0.4,1.6
				c0,2.4-1.4,4.3-4.3,6.1c-2.9,1.7-5.8,2.5-8.8,2.5c-4,0-6.3-1.4-7.1-4.2l-6.1-21.3h-36.7l-6.1,21.3
				C527.9,142.8,525.5,144.2,521.7,144.2 M539.1,102.3H567l-14-49.2L539.1,102.3z"/>
		</g>
		<g>
			<path class="st0" d="M692.3,144.2c-5.7,0-9.6-2.2-12-6.6l-34.4-64.5v64.5c0,2-1.1,3.6-3.1,4.8c-2,1.2-4.5,1.8-7.3,1.8
				c-2.9,0-5.3-0.6-7.3-1.8c-2-1.2-3-2.8-3-4.8v-104c0-2.2,1-3.7,3-4.9c2-1.1,4.5-1.7,7.3-1.7c3.9,0,6.7,0.7,8.8,2
				c2,1.4,4.3,4.3,6.7,9l30.9,59.8V33.5c0-2.2,1-3.7,3-4.8c2-1.1,4.5-1.6,7.3-1.6c2.9,0,5.3,0.5,7.3,1.6c2,1.1,3,2.6,3,4.8v104.3
				c0,2-1.1,3.6-3.1,4.8C697.4,143.6,695,144.2,692.3,144.2"/>
		</g>
	</g>
</g>
<g id="Layer_3">
	<path class="st0" d="M4.3,60.5c0.1,0,0.7,0,0.6,0.3s0.7-0.1,0.7-0.1"/>
</g>
<g id="Layer_4">
</g>
</svg>
